<svg viewBox="0 0 400 300" xmlns="http://www.w3.org/2000/svg">
  <defs>
    <linearGradient id="grad1" x1="0%" y1="0%" x2="100%" y2="100%">
      <stop offset="0%" style="stop-color:#007aff;stop-opacity:0.8" />
      <stop offset="100%" style="stop-color:#5856d6;stop-opacity:0.6" />
    </linearGradient>
    <linearGradient id="grad2" x1="0%" y1="0%" x2="100%" y2="100%">
      <stop offset="0%" style="stop-color:#ffffff;stop-opacity:0.9" />
      <stop offset="100%" style="stop-color:#f8f9fa;stop-opacity:0.7" />
    </linearGradient>
  </defs>
  
  <!-- Background -->
  <rect width="400" height="300" fill="url(#grad2)"/>
  
  <!-- Main Framework Icon -->
  <g transform="translate(50, 50)">
    <!-- Framework Container -->
    <rect x="0" y="0" width="300" height="200" rx="20" fill="url(#grad1)" opacity="0.1"/>
    <rect x="10" y="10" width="280" height="180" rx="15" fill="none" stroke="url(#grad1)" stroke-width="2"/>
    
    <!-- Code Blocks -->
    <rect x="30" y="30" width="80" height="15" rx="3" fill="url(#grad1)" opacity="0.6"/>
    <rect x="30" y="55" width="120" height="15" rx="3" fill="url(#grad1)" opacity="0.4"/>
    <rect x="30" y="80" width="100" height="15" rx="3" fill="url(#grad1)" opacity="0.5"/>
    
    <!-- Component Tree -->
    <g transform="translate(180, 30)">
      <circle cx="0" cy="15" r="8" fill="url(#grad1)" opacity="0.7"/>
      <line x1="0" y1="23" x2="0" y2="40" stroke="url(#grad1)" stroke-width="2" opacity="0.6"/>
      <line x1="0" y1="40" x2="-20" y2="55" stroke="url(#grad1)" stroke-width="2" opacity="0.6"/>
      <line x1="0" y1="40" x2="20" y2="55" stroke="url(#grad1)" stroke-width="2" opacity="0.6"/>
      <circle cx="-20" cy="60" r="6" fill="url(#grad1)" opacity="0.6"/>
      <circle cx="20" cy="60" r="6" fill="url(#grad1)" opacity="0.6"/>
    </g>
    
    <!-- Performance Indicators -->
    <g transform="translate(30, 120)">
      <rect x="0" y="0" width="240" height="60" rx="8" fill="none" stroke="url(#grad1)" stroke-width="2" opacity="0.3"/>
      
      <!-- Performance Bars -->
      <rect x="20" y="15" width="60" height="8" rx="4" fill="url(#grad1)" opacity="0.3"/>
      <rect x="20" y="15" width="52" height="8" rx="4" fill="url(#grad1)" opacity="0.8"/>
      <text x="90" y="22" font-family="monospace" font-size="10" fill="url(#grad1)" opacity="0.7">98/100</text>
      
      <rect x="20" y="35" width="60" height="8" rx="4" fill="url(#grad1)" opacity="0.3"/>
      <rect x="20" y="35" width="55" height="8" rx="4" fill="url(#grad1)" opacity="0.8"/>
      <text x="90" y="42" font-family="monospace" font-size="10" fill="url(#grad1)" opacity="0.7">&lt;50KB</text>
      
      <!-- TypeScript Icon -->
      <g transform="translate(160, 15)">
        <rect x="0" y="0" width="30" height="30" rx="4" fill="url(#grad1)" opacity="0.2"/>
        <text x="15" y="22" font-family="monospace" font-size="16" text-anchor="middle" fill="url(#grad1)" opacity="0.8">TS</text>
      </g>
      
      <!-- React Icon -->
      <g transform="translate(200, 15)">
        <circle cx="15" cy="15" r="15" fill="none" stroke="url(#grad1)" stroke-width="2" opacity="0.6"/>
        <circle cx="15" cy="15" r="3" fill="url(#grad1)" opacity="0.8"/>
        <ellipse cx="15" cy="15" rx="20" ry="8" fill="none" stroke="url(#grad1)" stroke-width="1.5" opacity="0.5" transform="rotate(60 15 15)"/>
        <ellipse cx="15" cy="15" rx="20" ry="8" fill="none" stroke="url(#grad1)" stroke-width="1.5" opacity="0.5" transform="rotate(-60 15 15)"/>
      </g>
    </g>
  </g>
  
  <!-- Decorative Elements -->
  <circle cx="350" cy="50" r="3" fill="url(#grad1)" opacity="0.4"/>
  <circle cx="370" cy="80" r="2" fill="url(#grad1)" opacity="0.3"/>
  <circle cx="30" cy="250" r="4" fill="url(#grad1)" opacity="0.3"/>
  <circle cx="60" cy="270" r="2" fill="url(#grad1)" opacity="0.4"/>
</svg>
